<svg xmlns="http://www.w3.org/2000/svg" width="116" height="69" fill="none"><path fill="#EEECED" d="M4 41.5C4 20.857 26.638 16 48.5 16S93 20.857 93 41.5 70.362 67 48.5 67 4 62.143 4 41.5Z"/><path fill="#D4D2D3" d="M48.243 16C28.184 16 7.48 20.124 4 36.825c1.326.226 2.818.334 4.524.334 1.61 0 3.468-.095 5.674-.292 3.096-.274 6.555-.716 10.218-1.184 2.27-.29 4.617-.59 7.019-.868 4.655-.541 10.773-1.162 16.808-1.162 6.036 0 12.153.62 16.811 1.162 2.399.278 4.746.578 7.017.869 3.662.468 7.121.91 10.213 1.183h.008c.471.043.871.373.999.838.044.16.09.321.138.482 1.465 4.925 4.445 9.124 8.268 11.813.846-2.366 1.303-5.023 1.303-8.002C93 20.952 70.231 16 48.243 16Z"/><path fill="#FB8D4B" d="M114.139 27.69c-1.529-3.344-4.946-6.176-9.369-7.316-4.986-1.286-9.893-.072-12.796 2.774-2.72 3.02-3.727 7.974-2.233 12.901 1.325 4.37 4.298 7.666 7.703 9.053a1.807 1.807 0 0 0 2.174-.66c2.062-3.044 2.704-7.435 1.379-11.806a16.27 16.27 0 0 0-.44-1.259c.415.144.841.274 1.277.386 4.422 1.14 8.783.314 11.738-1.873a1.807 1.807 0 0 0 .567-2.2ZM13.894 8.041C4.891 12.84 1.698 19.788 1.698 26.806c0 3.427 4.854 3.8 12.198 3.158l5.445-15.123-5.447-6.8Z"/><path fill="#E86D24" d="m82.507 8.002.004.01L82.504 8 76 14.745l6.504 14.998C90.028 30.38 95 30.01 95 26.61c0-6.96-3.272-13.85-12.493-18.609Z"/><path fill="#FB8D4B" d="m82.937 8.423-.002-.002C78.068 5.923 71.545 4.015 62.966 3l.002.002L57 13.09l8.609 14.961c6.413.701 12.415 1.54 17.326 1.95 4.598-11.681.095-21.374.002-21.577Z"/><path fill="#E86D24" d="m63.338 2.826-.003-.003C58.87 2.29 53.843 2 48.202 2L39 16.544l9.202 10.293c5.927 0 12.012.525 17.76 1.163 5.8-12.711-2.624-25.174-2.624-25.174Z"/><path fill="#FB8D4B" d="m33.097 2.824-.003.002L19 15l11.51 13c5.661-.638 11.654-1.163 17.49-1.163V2c-5.555 0-10.506.289-14.903.824Z"/><path fill="#E86D24" d="M32.998 3.002s-8.077 12.4-2.517 25.048c-6.111.701-11.833 1.54-16.513 1.95-4.382-11.681-.09-21.374-.002-21.577l.002-.002C18.606 5.923 24.824 4.015 33 3l-.002.002Z"/><path fill="#000" d="M34 44.376v-2.752c0-.897-.672-1.624-1.5-1.624s-1.5.727-1.5 1.624v2.752c0 .897.672 1.624 1.5 1.624s1.5-.727 1.5-1.624ZM66 44.376v-2.752c0-.897-.895-1.624-2-1.624s-2 .727-2 1.624v2.752c0 .897.895 1.624 2 1.624s2-.727 2-1.624ZM48.5 48c2.362 0 4.578-.894 6.081-2.453.616-.639.544-1.61-.16-2.167-.704-.559-1.774-.493-2.39.145-.86.892-2.146 1.403-3.53 1.403-1.385 0-2.672-.511-3.532-1.403-.616-.639-1.686-.704-2.39-.145-.704.558-.776 1.528-.16 2.167 1.503 1.559 3.72 2.453 6.08 2.453Z"/><path fill="#000" d="M4.336 31.594C2.885 34.642 2.15 38.088 2.15 41.876c0 7.851 3.106 14.119 9.232 18.63.757.556 1.82.393 2.376-.367a1.709 1.709 0 0 0-.365-2.383c-5.279-3.886-7.845-9.08-7.845-15.88 0-3.718.805-7.03 2.396-9.859 1.3.037 2.809-.008 4.607-.135 6.183-.438 12.32-1.408 18.475-2.111 4.757-.544 11.018-1.17 17.27-1.17 5.768 0 11.543.515 17.27 1.17 5.66.648 11.303 1.499 16.98 1.993 1.599.14 3.204.251 4.808.263a17.36 17.36 0 0 0 .143 1.764c.41 3.066 1.63 6.1 3.532 8.543l.01.015c-.151 8.491-4.417 14.512-13.028 18.398-7.121 3.213-17.119 4.843-29.715 4.843-12.219 0-22.003-1.536-29.079-4.565a1.697 1.697 0 0 0-2.23.9 1.707 1.707 0 0 0 .896 2.237C25.382 67.372 35.615 69 48.295 69c13.08 0 23.546-1.73 31.109-5.143 8.776-3.96 13.745-10.16 14.816-18.455a13.04 13.04 0 0 0 2.584 1.431c1.48.605 3.302.081 4.223-1.284 2.154-3.192 2.867-7.464 2.004-11.687 4.242.687 8.465-.207 11.553-2.5a3.54 3.54 0 0 0 1.102-4.288c-1.802-3.953-5.723-7.049-10.49-8.282-3.465-.897-6.963-.72-9.937.401-1.92-5.231-5.866-9.472-11.755-12.624l-.012-.007C78.285 3.775 71.52 1.852 63.382.848 58.828.285 53.752 0 48.294 0c-5.456 0-10.531.285-15.087.848-8.137 1.004-14.903 2.927-20.11 5.714l-.013.008C2.271 12.358 0 20.818 0 26.897c0 1.298.481 2.426 1.392 3.264.71.653 1.666 1.126 2.944 1.433ZM49.994 3.42c4.35.05 8.427.29 12.15.715 1.28 2.27 5.177 10.112 3.479 18.74a21.477 21.477 0 0 1-.924 3.287l-.028.078c-4.298-.475-8.611-.852-12.934-.99-.58-.018-1.162-.033-1.743-.043V3.419Zm31.36 5.872c1.07 2.773 1.536 5.77 1.636 8.732l.002.06a29.672 29.672 0 0 1-1.431 10.071l-.03.09-.97-.099c-3.699-.392-7.387-.89-11.079-1.343l-1.344-.163.008-.026c3.041-9.024.188-17.515-1.873-21.908 5.979.98 11.038 2.516 15.08 4.586Zm22.993 12.802c3.785.98 6.868 3.372 8.248 6.399.02.043.006.1-.033.128-2.666 1.98-6.518 2.579-10.303 1.6a14.72 14.72 0 0 1-1.143-.348c-1.35-.47-2.661.907-2.138 2.237.148.377.28.758.394 1.132 1.134 3.753.701 7.64-1.16 10.396a.108.108 0 0 1-.126.038c-5.966-2.43-8.765-10.414-6.623-16.282l.024-.066c1.923-5.17 8.002-6.49 12.86-5.234Zm-12.124-1.29c-.505.362-1.545 1.324-1.604 1.391-1.545 1.763-2.563 3.987-3.011 6.425-.016 0-1.728-.034-2.568-.088l-.031-.002.015-.052a33 33 0 0 0 .652-16.47l-.005-.021c3.199 2.448 5.393 5.4 6.552 8.817Zm-45.627 4.403-.455.01c-3.9.085-7.796.322-11.673.754-.85.085-1.7.175-2.549.269l-.023-.064c-2.195-5.922-1.503-12.52.785-18.304a30.094 30.094 0 0 1 1.765-3.737c3.723-.426 7.8-.665 12.15-.715v21.787Zm-16.29-20.48c-2.041 4.313-3.225 9.072-3.19 13.86a25.73 25.73 0 0 0 1.29 7.914l.044.14c-3.768.452-7.531.968-11.304 1.383-.696.078-1.391.152-2.088.22l-.027-.082a29.832 29.832 0 0 1-.89-14.908c.368-1.875.83-3.253 1.097-3.965 4.041-2.067 9.1-3.604 15.079-4.583l-.01.021ZM10.92 11.98l-.005.023c-1.197 5.424-.945 11.16.652 16.474l.014.05c-4.33.254-6.98-.041-7.893-.88-.174-.16-.29-.349-.29-.75 0-6.104 2.526-11.106 7.522-14.917Z"/></svg>